<svg width="336" height="111" viewBox="0 0 336 111" fill="none" xmlns="http://www.w3.org/2000/svg">
<path d="M306.886 55.4883L318.886 70.5735L306.886 86.4883V55.4883Z" fill="#0B3F8C"/>
<path d="M321.886 55.4883L333.886 70.5735L321.886 86.4883V55.4883Z" fill="#0B3F8C"/>
<path d="M119.274 59.87V67.6867H129.771V72.6447H119.274V80.908H131.111V86H113.021V54.778H131.111V59.87H119.274ZM155.464 86L148.72 75.5033L142.6 86H135.543L145.37 70.2773L135.409 54.8227H142.6L149.345 65.2747L155.42 54.8227H162.477L152.695 70.5007L162.656 86H155.464ZM190.15 64.4707C190.15 66.1382 189.748 67.7016 188.944 69.1607C188.17 70.6198 186.934 71.796 185.237 72.6893C183.569 73.5827 181.455 74.0293 178.894 74.0293H173.668V86H167.415V54.8227H178.894C181.306 54.8227 183.361 55.2396 185.058 56.0733C186.756 56.9071 188.021 58.0536 188.855 59.5127C189.718 60.9718 190.15 62.6244 190.15 64.4707ZM178.626 68.982C180.353 68.982 181.634 68.5949 182.468 67.8207C183.301 67.0167 183.718 65.9 183.718 64.4707C183.718 61.4333 182.021 59.9147 178.626 59.9147H173.668V68.982H178.626ZM210.67 86L203.791 73.8507H200.843V86H194.59V54.8227H206.293C208.705 54.8227 210.759 55.2544 212.457 56.118C214.154 56.9518 215.42 58.0982 216.253 59.5573C217.117 60.9867 217.549 62.5947 217.549 64.3813C217.549 66.436 216.953 68.2971 215.762 69.9647C214.571 71.6024 212.799 72.734 210.447 73.3593L217.906 86H210.67ZM200.843 69.1607H206.069C207.767 69.1607 209.032 68.7587 209.866 67.9547C210.7 67.1209 211.117 65.9744 211.117 64.5153C211.117 63.086 210.7 61.9842 209.866 61.21C209.032 60.406 207.767 60.004 206.069 60.004H200.843V69.1607ZM229.458 59.87V67.6867H239.955V72.6447H229.458V80.908H241.295V86H223.205V54.778H241.295V59.87H229.458ZM257.742 86.3127C255.568 86.3127 253.603 85.9404 251.846 85.196C250.119 84.4516 248.749 83.3796 247.737 81.98C246.724 80.5804 246.203 78.9278 246.173 77.022H252.873C252.963 78.3024 253.409 79.3149 254.213 80.0593C255.047 80.8038 256.179 81.176 257.608 81.176C259.067 81.176 260.214 80.8336 261.047 80.1487C261.881 79.434 262.298 78.5109 262.298 77.3793C262.298 76.4562 262.015 75.6969 261.449 75.1013C260.884 74.5058 260.169 74.0442 259.305 73.7167C258.472 73.3593 257.31 72.9722 255.821 72.5553C253.796 71.9598 252.144 71.3791 250.863 70.8133C249.613 70.2178 248.526 69.3393 247.603 68.178C246.709 66.9869 246.263 65.4087 246.263 63.4433C246.263 61.5971 246.724 59.9891 247.647 58.6193C248.57 57.2496 249.866 56.2073 251.533 55.4927C253.201 54.7482 255.107 54.376 257.251 54.376C260.467 54.376 263.072 55.1651 265.067 56.7433C267.092 58.2918 268.209 60.4656 268.417 63.2647H261.539C261.479 62.1927 261.018 61.3142 260.154 60.6293C259.32 59.9147 258.204 59.5573 256.804 59.5573C255.583 59.5573 254.6 59.87 253.856 60.4953C253.141 61.1207 252.784 62.0289 252.784 63.22C252.784 64.0538 253.052 64.7536 253.588 65.3193C254.154 65.8553 254.839 66.302 255.643 66.6593C256.476 66.9869 257.638 67.374 259.127 67.8207C261.152 68.4162 262.804 69.0118 264.085 69.6073C265.365 70.2029 266.467 71.0962 267.39 72.2873C268.313 73.4784 268.775 75.0418 268.775 76.9773C268.775 78.6449 268.343 80.1933 267.479 81.6227C266.616 83.052 265.35 84.1984 263.683 85.062C262.015 85.8958 260.035 86.3127 257.742 86.3127ZM284.961 86.3127C282.787 86.3127 280.822 85.9404 279.065 85.196C277.338 84.4516 275.968 83.3796 274.955 81.98C273.943 80.5804 273.422 78.9278 273.392 77.022H280.092C280.181 78.3024 280.628 79.3149 281.432 80.0593C282.266 80.8038 283.397 81.176 284.827 81.176C286.286 81.176 287.432 80.8336 288.266 80.1487C289.1 79.434 289.517 78.5109 289.517 77.3793C289.517 76.4562 289.234 75.6969 288.668 75.1013C288.102 74.5058 287.388 74.0442 286.524 73.7167C285.69 73.3593 284.529 72.9722 283.04 72.5553C281.015 71.9598 279.363 71.3791 278.082 70.8133C276.831 70.2178 275.745 69.3393 274.821 68.178C273.928 66.9869 273.481 65.4087 273.481 63.4433C273.481 61.5971 273.943 59.9891 274.866 58.6193C275.789 57.2496 277.085 56.2073 278.752 55.4927C280.42 54.7482 282.325 54.376 284.469 54.376C287.685 54.376 290.291 55.1651 292.286 56.7433C294.311 58.2918 295.428 60.4656 295.636 63.2647H288.757C288.698 62.1927 288.236 61.3142 287.373 60.6293C286.539 59.9147 285.422 59.5573 284.023 59.5573C282.802 59.5573 281.819 59.87 281.075 60.4953C280.36 61.1207 280.003 62.0289 280.003 63.22C280.003 64.0538 280.271 64.7536 280.807 65.3193C281.373 65.8553 282.057 66.302 282.861 66.6593C283.695 66.9869 284.857 67.374 286.345 67.8207C288.37 68.4162 290.023 69.0118 291.303 69.6073C292.584 70.2029 293.686 71.0962 294.609 72.2873C295.532 73.4784 295.993 75.0418 295.993 76.9773C295.993 78.6449 295.562 80.1933 294.698 81.6227C293.835 83.052 292.569 84.1984 290.901 85.062C289.234 85.8958 287.254 86.3127 284.961 86.3127Z" fill="#0B3F8C"/>
<path d="M49.3548 0H53.0323L56.129 0.778571L61.5484 2.91964L64.2581 4.67143L66.7742 6.22857L69.4839 7.59107L72.1935 9.14821L76.2581 11.2893L78.9677 12.8464L84.5806 15.7661L89.4193 18.8804L93.0968 20.8268L97.1613 23.1625L98.5161 24.3304L100.452 26.8607L101.613 29.1964L102 30.5589V35.8143L101.032 38.5393L99.6774 40.4857L97.7419 42.4321L95.0323 44.3786L91.9355 45.9357L87.4839 48.4661L85.5484 49.8286L82.8387 51.3857L80.9032 52.5536L77.8064 54.1107L72.3871 57.0304L67.9355 59.7554L66.3871 60.9232L65.6129 62.2857V63.6482L66.1936 65.0107L66.9677 65.5946H68.9032L75.2903 62.2857L78.1935 60.5339L82.0645 58.3929L84.5806 56.6411L87.6774 55.0839L90.9677 53.1375L94.6452 51.3857L99.2903 48.4661L99.6774 48.2714H100.839L101.613 49.4393L102 50.6071V58.0036L101.032 60.1446L99.6774 62.2857L98.3226 63.6482L95.2258 65.9839L89.2258 69.0982L85.3548 71.4339L82.2581 73.3804L79.1613 75.1321L74.9032 77.4679L71.8064 79.2196L70.0645 79.8036L69.0968 80.7768L66.5806 82.7232L65.8064 83.5018L65.6129 84.0857V85.6429L66.3871 86.8107L66.7742 87.0054H68.9032L72 85.8375L74.129 84.6696L78.5806 82.1393L82.2581 79.8036L85.1613 78.2464L88.0645 76.4946L93.0968 73.7696L96 72.2125L99.4839 69.8768L99.871 69.6821H101.226L101.806 70.4607L102 71.6286V78.4411L101.032 81.1661L99.0968 84.0857L97.3548 85.6429L88.4516 90.5089L86.5161 91.8714L83.4193 93.6232L80.129 95.375L76.4516 97.3214L73.5484 99.0732L69.871 100.825L68.3226 101.993L67.5484 102.771L66.1936 102.966L61.9355 105.691L58.2581 107.248L55.1613 108.416L51.4839 109L48.1935 108.805L45.2903 107.832L42.9677 106.664L42 105.691L41.4194 104.134L41.2258 99.8518L41.0323 74.9375V64.4268L41.2258 54.8893L42 51.775L42.7742 49.4393L44.3226 46.5196L46.4516 43.7946L48.3871 42.4321L50.9032 40.875L55.9355 38.3446L58.4516 36.7875L62.129 35.0357L65.8064 32.8946L68.5161 31.7268L71.0323 30.1696L72.7742 29.1964L73.3548 28.0286V26.2768L72.7742 25.3036L72.1935 24.7196H70.2581L67.1613 25.8875L64.2581 27.4446L61.5484 28.8071L60 29.7804L58.8387 30.1696L55.3548 32.1161L52.2581 33.6732L48.5806 35.6196L45.871 36.9821L42.7742 39.9018L41.2258 41.0696L39.871 42.8214L38.7097 44.7679L37.3548 46.9089L36.3871 49.05L36 50.6071L35.8064 52.3589L35.6129 62.4804V81.3607L35.4194 100.63L34.8387 101.214H32.9032L26.7097 98.1L23.0323 95.9589L21.4839 94.4018V94.0125L20.7097 93.6232L20.5161 93.2339L20.3226 81.9446V54.8893L20.5161 44.9625L21.2903 41.6536L22.8387 37.7607L24.3871 35.6196L26.5161 33.2839L30.7742 30.7536L35.8064 27.8339L40.0645 25.4982L43.1613 23.9411L46.4516 22.1893L50.5161 19.8536L52.6452 18.6857L53.2258 17.7125V15.3768L52.4516 14.0143L50.9032 13.625L48.7742 14.4036L43.9355 16.9339L40.2581 19.075L36.5806 21.0214L28.4516 25.3036L25.7419 26.8607L23.8065 28.4179L21.2903 30.5589L19.7419 32.3107L17.8065 34.8411L16.6452 36.7875L15.871 38.7339L15.2903 42.6268L15.0968 45.1571L14.9032 87.5893L14.3226 88.9518L13.5484 89.925L12.1935 89.7304L9.67742 88.3679L6.77419 86.4214L4.45161 84.2804L2.90323 82.1393L0.580645 77.0786L0.193548 75.5214L0 72.2125V34.4518L0.580645 31.9214L2.51613 27.25L4.06452 25.1089L5.6129 23.3571L7.16129 22.1893L10.4516 20.0482L14.5161 17.7125L17.2258 15.9607L20.3226 14.4036L24.5806 12.0679L29.2258 9.5375L32.129 7.98036L35.2258 6.22857L37.9355 4.67143L40.8387 2.91964L44.9032 1.16786L47.8064 0.194643L49.3548 0Z" fill="#0B3F8C"/>
<path d="M118.708 0H122.378L123.952 0.349609L125.7 1.39844L126.923 2.79688L128.671 5.41895L130.594 8.21582L132.167 10.6631L133.566 12.5859L135.314 15.3828L136.013 15.7324L136.363 14.8584L137.761 12.7607L140.034 9.61426L141.607 7.69141L142.831 5.94336L143.705 4.37012L145.453 2.09766L146.327 1.04883L147.725 0.349609L149.298 0H153.144L155.242 0.524414L156.815 1.57324L157.514 2.62207L157.864 5.06934L157.689 43.876V45.7988L157.514 45.9736H150.522L149.473 45.4492L148.25 44.4004L146.501 41.7783L146.327 41.2539V32.5137L146.501 24.6475L146.676 20.1025L144.404 23.249L142.306 26.3955L140.908 28.3184L138.635 30.7656L137.237 31.29H133.916L132.517 30.7656L131.119 29.542L129.72 27.4443L127.273 23.9482L126.049 22.0254L124.651 20.627L124.476 41.2539L124.126 42.3027L122.553 44.2256L121.33 45.624L120.281 45.9736H113.114L112.939 45.7988V37.583L113.114 5.24414L113.638 3.6709L114.862 1.74805L116.085 0.699219L117.659 0.174805L118.708 0Z" fill="#FB1515"/>
<path d="M220.094 0H228.66L246.665 0.174805V4.37012L246.49 6.64258L245.441 8.56543L244.567 9.61426L242.12 11.0127L241.595 11.1875L239.672 11.3623H217.297L217.123 13.6348L216.948 25.5215V34.0869L233.904 33.9121L234.778 33.2129L234.953 32.6885V30.5908L234.428 30.416H231.282L229.009 29.542L227.086 28.1436L226.212 27.2695L225.863 25.8711V18.7041H240.896L242.469 18.8789L243.868 19.5781L245.266 21.1514L245.965 22.7246L246.14 23.5986V31.8145L245.791 35.4854L244.742 38.6318L243.343 40.7295L241.246 42.8271L239.148 44.2256L237.4 45.2744L235.477 45.9736H215.375L212.578 44.5752L209.781 42.4775L208.033 40.7295L206.285 38.457L205.585 36.5342L205.236 34.6113V22.2002L205.411 11.5371L205.76 9.26465L206.459 7.69141L208.732 4.54492L210.83 2.44727L212.578 1.22363L214.326 0.524414L216.249 0.174805L220.094 0Z" fill="#FA1515"/>
<path d="M309.419 0H317.985L325.327 0.174805L327.774 0.699219L329.872 1.74805L332.144 3.6709L333.892 5.59375L335.291 8.04102L335.815 9.96387L335.99 11.7119V26.0459L335.815 37.0586L335.64 41.7783L335.116 42.8271L332.494 45.4492L330.746 45.9736H324.103V37.7578L324.453 36.5342L326.026 34.4365L327.25 32.5137L329.172 30.0664L330.221 28.4932L331.794 26.3955L333.018 24.123L332.843 23.0742L330.92 20.8018L329.172 18.5293L325.327 13.6348L323.753 11.7119L322.879 11.3623H306.797L306.273 16.082L306.098 19.0537L317.286 18.8789H323.229L323.579 19.9277V30.416H305.923V40.3799L305.574 42.3027L304.7 43.876L302.952 45.4492L301.903 45.9736L294.911 46.1484L294.736 45.9736V37.7578L294.911 27.9688L295.085 12.0615L295.785 9.08984L296.659 6.99219L297.882 4.89453L299.63 2.97168L302.427 1.04883L304.7 0.349609L305.749 0.174805L309.419 0Z" fill="#FB1515"/>
<path d="M181.288 0H188.455L201.74 0.174805V6.29297L201.041 8.04102L199.817 9.61426L197.195 11.0127L196.496 11.1875L193.699 11.3623H178.666L177.792 11.7119L176.568 13.2852L176.043 14.6836L175.869 16.9561L193.874 17.1309L194.048 17.3057L193.874 23.7734L193.349 25.5215L191.951 27.2695L191.077 27.9688L190.203 28.3184L188.979 28.4932H175.869V31.1152L176.393 32.8633L177.267 33.7373L177.792 33.9121L201.215 34.0869V40.3799L200.516 42.6523L199.292 44.4004L198.069 45.4492L197.195 45.9736L194.922 46.1484L176.043 45.9736L173.421 44.75L171.499 43.5264L169.401 41.9531L167.478 40.0303L166.254 38.2822L165.031 34.4365L164.681 31.9893L164.856 13.1104L165.38 11.0127L166.254 8.21582L168.002 5.59375L169.576 3.8457L171.673 2.09766L173.421 1.04883L175.694 0.349609L177.092 0.174805L181.288 0Z" fill="#FB1515"/>
<path d="M259.95 0H262.747L263.271 0.174805L263.096 13.6348L262.921 17.1309H276.906V6.11816L277.255 4.02051L278.304 1.92285L279.178 1.04883L279.877 0.524414L280.926 0.174805L284.073 0H288.268V6.64258L287.918 25.8711L287.744 41.7783L287.044 43.1768L286.17 44.2256L284.073 45.7988L283.723 45.9736L279.353 46.1484H276.556L276.381 45.9736V42.1279L276.731 28.8428L276.906 28.4932H263.795L262.921 28.3184L262.747 40.5547L262.572 42.1279L261.873 43.1768L260.125 44.9248L259.425 45.7988L259.076 45.9736L254.006 46.1484H251.559L251.384 45.9736V5.06934L252.433 2.97168L254.006 0.874023L255.055 0.349609L255.754 0.174805L259.95 0Z" fill="#FB1515"/>
<path d="M116.345 109H114.001V101H116.486C117.249 101 117.901 101.159 118.443 101.477C118.987 101.794 119.404 102.25 119.693 102.844C119.982 103.437 120.126 104.15 120.126 104.98C120.126 105.819 119.978 106.539 119.681 107.141C119.387 107.74 118.957 108.199 118.392 108.52C117.83 108.84 117.147 109 116.345 109ZM114.732 108.344H116.302C116.99 108.344 117.565 108.208 118.029 107.937C118.492 107.667 118.84 107.28 119.072 106.777C119.304 106.275 119.419 105.676 119.419 104.98C119.417 104.29 119.302 103.697 119.076 103.199C118.852 102.702 118.518 102.32 118.076 102.055C117.636 101.789 117.091 101.656 116.443 101.656H114.732V108.344ZM128.896 105C128.896 105.833 128.747 106.559 128.45 107.176C128.153 107.79 127.745 108.267 127.224 108.605C126.705 108.941 126.109 109.109 125.435 109.109C124.76 109.109 124.162 108.941 123.642 108.605C123.123 108.267 122.716 107.79 122.419 107.176C122.125 106.559 121.978 105.833 121.978 105C121.978 104.167 122.125 103.443 122.419 102.828C122.716 102.211 123.125 101.734 123.646 101.398C124.166 101.06 124.763 100.891 125.435 100.891C126.109 100.891 126.705 101.06 127.224 101.398C127.745 101.734 128.153 102.211 128.45 102.828C128.747 103.443 128.896 104.167 128.896 105ZM128.185 105C128.185 104.284 128.065 103.671 127.825 103.16C127.586 102.647 127.259 102.255 126.845 101.984C126.431 101.714 125.961 101.578 125.435 101.578C124.911 101.578 124.442 101.714 124.028 101.984C123.614 102.255 123.286 102.646 123.044 103.156C122.804 103.667 122.685 104.281 122.685 105C122.685 105.716 122.804 106.329 123.044 106.84C123.284 107.35 123.61 107.742 124.024 108.016C124.439 108.286 124.909 108.422 125.435 108.422C125.961 108.422 126.431 108.286 126.845 108.016C127.261 107.745 127.59 107.354 127.829 106.844C128.069 106.331 128.187 105.716 128.185 105ZM131.102 101H131.946L134.848 107.969H134.919L137.821 101H138.665V109H137.977V102.543H137.915L135.215 109H134.551L131.852 102.543H131.79V109H131.102V101ZM141.232 109V101H145.872V101.656H141.962V104.668H145.626V105.324H141.962V108.344H145.95V109H141.232ZM152.547 103C152.502 102.555 152.306 102.201 151.957 101.937C151.608 101.674 151.169 101.543 150.64 101.543C150.268 101.543 149.94 101.607 149.656 101.734C149.375 101.862 149.153 102.039 148.992 102.266C148.833 102.49 148.754 102.745 148.754 103.031C148.754 103.242 148.799 103.427 148.89 103.586C148.982 103.745 149.104 103.882 149.258 103.996C149.414 104.108 149.586 104.204 149.773 104.285C149.963 104.366 150.155 104.434 150.347 104.488L151.191 104.73C151.446 104.801 151.702 104.891 151.957 105C152.212 105.109 152.445 105.247 152.656 105.414C152.87 105.578 153.04 105.78 153.168 106.02C153.298 106.257 153.363 106.542 153.363 106.875C153.363 107.302 153.252 107.686 153.031 108.027C152.81 108.368 152.492 108.639 152.078 108.84C151.664 109.038 151.168 109.137 150.59 109.137C150.045 109.137 149.573 109.047 149.172 108.867C148.771 108.685 148.455 108.434 148.226 108.113C147.997 107.793 147.868 107.422 147.84 107H148.59C148.616 107.315 148.72 107.582 148.902 107.801C149.084 108.02 149.321 108.186 149.613 108.301C149.905 108.413 150.23 108.469 150.59 108.469C150.988 108.469 151.342 108.402 151.652 108.27C151.965 108.134 152.209 107.947 152.386 107.707C152.566 107.465 152.656 107.184 152.656 106.863C152.656 106.592 152.586 106.366 152.445 106.184C152.304 105.999 152.108 105.844 151.855 105.719C151.605 105.594 151.315 105.483 150.984 105.387L150.027 105.105C149.399 104.918 148.913 104.659 148.566 104.328C148.22 103.997 148.047 103.576 148.047 103.062C148.047 102.633 148.161 102.255 148.39 101.93C148.622 101.602 148.935 101.346 149.328 101.164C149.724 100.979 150.168 100.887 150.66 100.887C151.157 100.887 151.597 100.978 151.98 101.16C152.363 101.342 152.666 101.594 152.89 101.914C153.117 102.232 153.238 102.594 153.254 103H152.547ZM155.076 101.656V101H160.877V101.656H158.342V109H157.612V101.656H155.076ZM163.692 101V109H162.962V101H163.692ZM172.525 103.5H171.79C171.736 103.227 171.637 102.974 171.494 102.742C171.353 102.508 171.176 102.303 170.962 102.129C170.749 101.954 170.507 101.819 170.236 101.723C169.965 101.626 169.672 101.578 169.357 101.578C168.852 101.578 168.391 101.71 167.974 101.973C167.56 102.236 167.228 102.622 166.978 103.133C166.731 103.641 166.607 104.263 166.607 105C166.607 105.742 166.731 106.367 166.978 106.875C167.228 107.383 167.56 107.768 167.974 108.031C168.391 108.292 168.852 108.422 169.357 108.422C169.672 108.422 169.965 108.374 170.236 108.277C170.507 108.181 170.749 108.047 170.962 107.875C171.176 107.701 171.353 107.496 171.494 107.262C171.637 107.027 171.736 106.773 171.79 106.5H172.525C172.46 106.867 172.337 107.21 172.158 107.527C171.981 107.842 171.754 108.118 171.478 108.355C171.205 108.592 170.889 108.777 170.533 108.91C170.176 109.043 169.784 109.109 169.357 109.109C168.685 109.109 168.089 108.941 167.568 108.605C167.047 108.267 166.638 107.79 166.341 107.176C166.047 106.561 165.9 105.836 165.9 105C165.9 104.164 166.047 103.439 166.341 102.824C166.638 102.21 167.047 101.734 167.568 101.398C168.089 101.06 168.685 100.891 169.357 100.891C169.784 100.891 170.176 100.957 170.533 101.09C170.889 101.22 171.205 101.405 171.478 101.645C171.754 101.882 171.981 102.158 172.158 102.473C172.337 102.788 172.46 103.13 172.525 103.5ZM180.21 109.109C179.718 109.109 179.289 109.014 178.921 108.824C178.554 108.632 178.269 108.37 178.066 108.039C177.863 107.708 177.761 107.335 177.761 106.918C177.761 106.616 177.822 106.344 177.945 106.102C178.07 105.857 178.25 105.625 178.484 105.406C178.718 105.185 179.002 104.956 179.335 104.719L180.496 103.855C180.772 103.658 180.981 103.464 181.125 103.273C181.27 103.081 181.343 102.845 181.343 102.566C181.343 102.298 181.242 102.059 181.039 101.848C180.838 101.634 180.578 101.527 180.257 101.527C180.033 101.527 179.833 101.583 179.656 101.695C179.481 101.807 179.342 101.953 179.238 102.133C179.136 102.31 179.085 102.496 179.085 102.691C179.085 102.874 179.132 103.057 179.226 103.242C179.32 103.424 179.446 103.617 179.605 103.82C179.764 104.021 179.941 104.242 180.136 104.484L183.793 109H182.949L179.761 105.09C179.493 104.762 179.255 104.469 179.046 104.211C178.838 103.951 178.674 103.701 178.554 103.461C178.434 103.219 178.375 102.96 178.375 102.684C178.375 102.342 178.454 102.039 178.613 101.773C178.772 101.505 178.99 101.294 179.269 101.141C179.55 100.987 179.872 100.91 180.234 100.91C180.604 100.91 180.924 100.986 181.195 101.137C181.468 101.288 181.679 101.488 181.828 101.738C181.979 101.988 182.054 102.264 182.054 102.566C182.054 102.928 181.96 103.249 181.773 103.527C181.588 103.806 181.319 104.079 180.964 104.348L179.511 105.434C179.113 105.733 178.839 106.01 178.691 106.266C178.543 106.521 178.468 106.738 178.468 106.918C178.468 107.199 178.541 107.458 178.687 107.695C178.833 107.932 179.035 108.122 179.293 108.266C179.553 108.409 179.851 108.482 180.187 108.484C180.52 108.482 180.834 108.415 181.128 108.285C181.423 108.152 181.686 107.964 181.918 107.719C182.152 107.474 182.339 107.181 182.48 106.84C182.623 106.499 182.707 106.118 182.73 105.699L183.406 105.707C183.395 106.137 183.337 106.501 183.23 106.801C183.126 107.098 183.006 107.342 182.871 107.535C182.735 107.728 182.617 107.883 182.515 108C182.487 108.039 182.458 108.078 182.429 108.117C182.401 108.156 182.371 108.195 182.339 108.234C182.079 108.521 181.755 108.738 181.367 108.887C180.981 109.035 180.596 109.109 180.21 109.109ZM189.751 101V109H189.02V101H189.751ZM198.548 101V109H197.837L193.111 102.301H193.048V109H192.318V101H193.025L197.767 107.707H197.829V101H198.548ZM200.631 101.656V101H206.431V101.656H203.896V109H203.166V101.656H200.631ZM208.516 109V101H213.157V101.656H209.246V104.668H212.91V105.324H209.246V108.344H213.235V109H208.516ZM215.487 109V101H218.069C218.637 101 219.111 101.103 219.491 101.309C219.874 101.512 220.162 101.794 220.354 102.156C220.55 102.516 220.647 102.928 220.647 103.395C220.647 103.861 220.55 104.272 220.354 104.629C220.162 104.986 219.875 105.264 219.495 105.465C219.115 105.665 218.643 105.766 218.081 105.766H215.882V105.098H218.061C218.478 105.098 218.824 105.029 219.1 104.891C219.379 104.753 219.586 104.556 219.722 104.301C219.86 104.046 219.929 103.743 219.929 103.395C219.929 103.046 219.86 102.741 219.722 102.48C219.584 102.217 219.375 102.014 219.097 101.871C218.821 101.728 218.472 101.656 218.05 101.656H216.218V109H215.487ZM219.015 105.391L220.983 109H220.14L218.19 105.391H219.015ZM229.097 101V109H228.386L223.66 102.301H223.597V109H222.867V101H223.574L228.316 107.707H228.378V101H229.097ZM231.676 109H230.91L233.82 101H234.602L237.512 109H236.746L234.238 101.949H234.184L231.676 109ZM232.227 105.934H236.195V106.59H232.227V105.934ZM237.904 101.656V101H243.705V101.656H241.17V109H240.439V101.656H237.904ZM246.52 101V109H245.789V101H246.52ZM255.645 105C255.645 105.833 255.497 106.559 255.2 107.176C254.903 107.79 254.494 108.267 253.973 108.605C253.455 108.941 252.859 109.109 252.184 109.109C251.51 109.109 250.912 108.941 250.391 108.605C249.873 108.267 249.466 107.79 249.169 107.176C248.874 106.559 248.727 105.833 248.727 105C248.727 104.167 248.874 103.443 249.169 102.828C249.466 102.211 249.874 101.734 250.395 101.398C250.916 101.06 251.512 100.891 252.184 100.891C252.859 100.891 253.455 101.06 253.973 101.398C254.494 101.734 254.903 102.211 255.2 102.828C255.497 103.443 255.645 104.167 255.645 105ZM254.934 105C254.934 104.284 254.814 103.671 254.575 103.16C254.335 102.647 254.008 102.255 253.594 101.984C253.18 101.714 252.71 101.578 252.184 101.578C251.661 101.578 251.192 101.714 250.778 101.984C250.364 102.255 250.036 102.646 249.794 103.156C249.554 103.667 249.434 104.281 249.434 105C249.434 105.716 249.554 106.329 249.794 106.84C250.033 107.35 250.36 107.742 250.774 108.016C251.188 108.286 251.658 108.422 252.184 108.422C252.71 108.422 253.18 108.286 253.594 108.016C254.011 107.745 254.339 107.354 254.579 106.844C254.818 106.331 254.937 105.716 254.934 105ZM264.082 101V109H263.371L258.645 102.301H258.582V109H257.852V101H258.559L263.301 107.707H263.364V101H264.082ZM266.661 109H265.895L268.805 101H269.587L272.497 109H271.731L269.223 101.949H269.169L266.661 109ZM267.212 105.934H271.18V106.59H267.212V105.934ZM274.308 109V101H275.038V108.344H278.851V109H274.308ZM290.735 103.5H290C289.946 103.227 289.847 102.974 289.704 102.742C289.563 102.508 289.386 102.303 289.172 102.129C288.959 101.954 288.717 101.819 288.446 101.723C288.175 101.626 287.882 101.578 287.567 101.578C287.062 101.578 286.601 101.71 286.184 101.973C285.77 102.236 285.438 102.622 285.188 103.133C284.941 103.641 284.817 104.263 284.817 105C284.817 105.742 284.941 106.367 285.188 106.875C285.438 107.383 285.77 107.768 286.184 108.031C286.601 108.292 287.062 108.422 287.567 108.422C287.882 108.422 288.175 108.374 288.446 108.277C288.717 108.181 288.959 108.047 289.172 107.875C289.386 107.701 289.563 107.496 289.704 107.262C289.847 107.027 289.946 106.773 290 106.5H290.735C290.67 106.867 290.547 107.21 290.368 107.527C290.191 107.842 289.964 108.118 289.688 108.355C289.415 108.592 289.099 108.777 288.743 108.91C288.386 109.043 287.994 109.109 287.567 109.109C286.895 109.109 286.299 108.941 285.778 108.605C285.257 108.267 284.848 107.79 284.551 107.176C284.257 106.561 284.11 105.836 284.11 105C284.11 104.164 284.257 103.439 284.551 102.824C284.848 102.21 285.257 101.734 285.778 101.398C286.299 101.06 286.895 100.891 287.567 100.891C287.994 100.891 288.386 100.957 288.743 101.09C289.099 101.22 289.415 101.405 289.688 101.645C289.964 101.882 290.191 102.158 290.368 102.473C290.547 102.788 290.67 103.13 290.735 103.5ZM299.449 105C299.449 105.833 299.301 106.559 299.004 107.176C298.707 107.79 298.298 108.267 297.777 108.605C297.259 108.941 296.663 109.109 295.988 109.109C295.314 109.109 294.716 108.941 294.195 108.605C293.677 108.267 293.27 107.79 292.973 107.176C292.678 106.559 292.531 105.833 292.531 105C292.531 104.167 292.678 103.443 292.973 102.828C293.27 102.211 293.678 101.734 294.199 101.398C294.72 101.06 295.316 100.891 295.988 100.891C296.663 100.891 297.259 101.06 297.777 101.398C298.298 101.734 298.707 102.211 299.004 102.828C299.301 103.443 299.449 104.167 299.449 105ZM298.738 105C298.738 104.284 298.619 103.671 298.379 103.16C298.139 102.647 297.813 102.255 297.398 101.984C296.984 101.714 296.514 101.578 295.988 101.578C295.465 101.578 294.996 101.714 294.582 101.984C294.168 102.255 293.84 102.646 293.598 103.156C293.358 103.667 293.238 104.281 293.238 105C293.238 105.716 293.358 106.329 293.598 106.84C293.837 107.35 294.164 107.742 294.578 108.016C294.992 108.286 295.462 108.422 295.988 108.422C296.514 108.422 296.984 108.286 297.398 108.016C297.815 107.745 298.143 107.354 298.383 106.844C298.622 106.331 298.741 105.716 298.738 105ZM306.988 101H307.718V106.297C307.718 106.841 307.591 107.328 307.336 107.758C307.08 108.185 306.725 108.522 306.269 108.77C305.816 109.014 305.289 109.137 304.687 109.137C304.088 109.137 303.561 109.013 303.105 108.766C302.649 108.518 302.294 108.181 302.039 107.754C301.783 107.327 301.656 106.841 301.656 106.297V101H302.386V106.246C302.386 106.671 302.481 107.049 302.672 107.383C302.862 107.714 303.129 107.974 303.472 108.164C303.819 108.354 304.224 108.449 304.687 108.449C305.151 108.449 305.556 108.354 305.902 108.164C306.248 107.974 306.515 107.714 306.703 107.383C306.893 107.049 306.988 106.671 306.988 106.246V101ZM310.281 109V101H312.863C313.431 101 313.905 101.103 314.285 101.309C314.668 101.512 314.956 101.794 315.149 102.156C315.344 102.516 315.442 102.928 315.442 103.395C315.442 103.861 315.344 104.272 315.149 104.629C314.956 104.986 314.669 105.264 314.289 105.465C313.909 105.665 313.438 105.766 312.875 105.766H310.676V105.098H312.856C313.272 105.098 313.619 105.029 313.895 104.891C314.173 104.753 314.38 104.556 314.516 104.301C314.654 104.046 314.723 103.743 314.723 103.395C314.723 103.046 314.654 102.741 314.516 102.48C314.378 102.217 314.169 102.014 313.891 101.871C313.615 101.728 313.266 101.656 312.844 101.656H311.012V109H310.281ZM313.809 105.391L315.778 109H314.934L312.985 105.391H313.809ZM318.391 101V109H317.661V101H318.391ZM320.958 109V101H325.599V101.656H321.689V104.668H325.353V105.324H321.689V108.344H325.677V109H320.958ZM327.93 109V101H330.512C331.079 101 331.553 101.103 331.933 101.309C332.316 101.512 332.604 101.794 332.797 102.156C332.992 102.516 333.09 102.928 333.09 103.395C333.09 103.861 332.992 104.272 332.797 104.629C332.604 104.986 332.318 105.264 331.937 105.465C331.557 105.665 331.086 105.766 330.523 105.766H328.324V105.098H330.504C330.92 105.098 331.267 105.029 331.543 104.891C331.821 104.753 332.029 104.556 332.164 104.301C332.302 104.046 332.371 103.743 332.371 103.395C332.371 103.046 332.302 102.741 332.164 102.48C332.026 102.217 331.818 102.014 331.539 101.871C331.263 101.728 330.914 101.656 330.492 101.656H328.66V109H327.93ZM331.457 105.391L333.426 109H332.582L330.633 105.391H331.457Z" fill="black"/>
</svg>
