<svg width="35" height="36" viewBox="0 0 35 36" fill="none" xmlns="http://www.w3.org/2000/svg">
<g clip-path="url(#clip0_272_8109)">
<path d="M27.7326 3.22113H11.7755V9.83844H31.1407V6.62784C31.1407 4.7492 29.6118 3.22113 27.7326 3.22113Z" fill="#CED9F9"/>
<path d="M18.6999 10.8567H0.0363159V4.71653C0.0363159 2.46661 1.86719 0.636536 4.1179 0.636536H10.0853C10.6784 0.636536 11.2498 0.761531 11.7689 0.996394C12.4939 1.32308 13.1168 1.86154 13.5536 2.56507L18.6999 10.8567Z" fill="#1640C1"/>
<path d="M34.8205 12.2314V32.0098C34.8205 33.8909 33.2892 35.4208 31.4074 35.4208H3.44934C1.56751 35.4208 0.0362549 33.8909 0.0362549 32.0098V8.81964H31.4074C33.2892 8.81964 34.8205 10.3501 34.8205 12.2314Z" fill="#2354E6"/>
<path d="M34.8205 12.2314V32.0098C34.8205 33.8909 33.2893 35.4208 31.4074 35.4208H17.4284V8.81964H31.4074C33.2893 8.81964 34.8205 10.3501 34.8205 12.2314Z" fill="#1849D6"/>
<path d="M26.5782 22.1198C26.5782 27.1655 22.4735 31.2704 17.4284 31.2704C12.3832 31.2704 8.2785 27.1655 8.2785 22.1198C8.2785 17.0748 12.3832 12.9699 17.4284 12.9699C22.4735 12.9699 26.5782 17.0748 26.5782 22.1198Z" fill="#E7ECFC"/>
<path d="M26.5783 22.1198C26.5783 27.1655 22.4736 31.2704 17.4284 31.2704V12.9699C22.4736 12.9699 26.5783 17.0748 26.5783 22.1198Z" fill="#CED9F9"/>
<path d="M20.3775 22.2321C20.1867 22.3937 19.9529 22.4725 19.7213 22.4725C19.4312 22.4725 19.143 22.3496 18.9413 22.1103L18.4474 21.5248V25.3578C18.4474 25.9204 17.991 26.3768 17.4284 26.3768C16.8657 26.3768 16.4093 25.9204 16.4093 25.3578V21.5248L15.9154 22.1103C15.5518 22.5405 14.9093 22.5954 14.4792 22.2321C14.0492 21.8693 13.994 21.2265 14.3568 20.7964L16.374 18.405C16.637 18.094 17.0207 17.9151 17.4284 17.9151C17.836 17.9151 18.2197 18.094 18.4827 18.405L20.4999 20.7964C20.8627 21.2265 20.8075 21.8693 20.3775 22.2321Z" fill="#6C8DEF"/>
<path d="M20.3776 22.2321C20.1868 22.3937 19.953 22.4725 19.7213 22.4725C19.4312 22.4725 19.143 22.3496 18.9414 22.1103L18.4475 21.5248V25.3578C18.4475 25.9204 17.991 26.3768 17.4284 26.3768V17.9151C17.836 17.9151 18.2198 18.094 18.4828 18.405L20.4999 20.7964C20.8627 21.2265 20.8075 21.8693 20.3776 22.2321Z" fill="#3B67E9"/>
</g>
<defs>
<clipPath id="clip0_272_8109">
<rect width="34.7842" height="34.7842" fill="white" transform="translate(0.0363159 0.636536)"/>
</clipPath>
</defs>
</svg>
